<?xml version="1.0" encoding="iso-8859-1"?>
<!-- Generator: Adobe Illustrator 19.0.0, SVG Export Plug-In . SVG Version: 6.00 Build 0)  -->
<svg version="1.1" id="Capa_1" xmlns="http://www.w3.org/2000/svg" xmlns:xlink="http://www.w3.org/1999/xlink" x="0px" y="0px"
	 viewBox="0 0 512.002 512.002" style="enable-background:new 0 0 512.002 512.002;" xml:space="preserve">
<g>
	<g>
		<g>
			<path d="M330.369,151.06c-4.142,0-7.5,3.357-7.5,7.5v12.345c0,4.143,3.358,7.5,7.5,7.5c4.143,0,7.5-3.357,7.5-7.5V158.56
				C337.869,154.417,334.511,151.06,330.369,151.06z"/>
			<path d="M153.854,364.632c27.609,0,50.071-22.462,50.071-50.071s-22.462-50.071-50.071-50.071
				c-27.609,0-50.071,22.462-50.071,50.071S126.245,364.632,153.854,364.632z M153.854,279.489
				c19.339,0,35.071,15.732,35.071,35.071s-15.732,35.071-35.071,35.071c-19.339,0-35.071-15.732-35.071-35.071
				C118.783,295.222,134.515,279.489,153.854,279.489z"/>
			<path d="M181.63,178.404c4.143,0,7.5-3.357,7.5-7.5V158.56c0-4.143-3.357-7.5-7.5-7.5s-7.5,3.357-7.5,7.5v12.345
				C174.13,175.047,177.488,178.404,181.63,178.404z"/>
			<path d="M269.953,166.524c-3.522,4.042-8.608,6.36-13.953,6.36c-5.345,0-10.431-2.318-13.953-6.36
				c-2.723-3.122-7.46-3.447-10.582-0.727c-3.122,2.722-3.448,7.459-0.727,10.582c6.372,7.312,15.579,11.505,25.262,11.505
				c9.683,0,18.89-4.193,25.262-11.505c2.722-3.123,2.396-7.86-0.727-10.582C277.41,163.076,272.672,163.401,269.953,166.524z"/>
			<path d="M445.897,124.121h-48.769c16.118-12.751,26.489-32.461,26.489-54.561C423.618,31.205,392.413,0,354.057,0
				c-44.382,0-82.449,27.534-98.03,66.416c-3.666-9.17-8.643-17.847-14.889-25.834c-2.554-3.264-7.268-3.84-10.528-1.288
				c-3.263,2.552-3.84,7.266-1.288,10.528c12.546,16.044,19.178,35.316,19.178,55.735v18.563h-6.283
				c-6.035-21.729-27.065-52.231-54.927-69.408c-3.527-2.175-8.147-1.078-10.32,2.447c-2.174,3.526-1.078,8.146,2.447,10.32
				c12.879,7.94,30.917,25.477,41.352,43.856c-27.818-16.209-58.179-20.83-72.812-20.753c-4.143,0.023-7.481,3.4-7.458,7.542
				c0.023,4.128,3.376,7.458,7.499,7.458c0.147-0.003,0.268-0.001,0.404-0.001c14.969,0,41.217,5.141,64.46,18.539h-54.92
				c-30.085,0-54.561-24.476-54.561-54.561c0-30.085,24.476-54.561,54.561-54.561c15.113,0,30.068,3.795,43.25,10.974
				c3.637,1.985,8.192,0.64,10.173-2.999c1.981-3.637,0.639-8.192-2.999-10.173C192.991,4.427,175.554,0,157.942,0
				c-38.355,0-69.561,31.205-69.561,69.561c0,22.099,10.372,41.81,26.489,54.561H66.102c-14.631,0-26.533,11.902-26.533,26.533
				v45.841c0,14.631,11.902,26.534,26.533,26.534h12.592v148.985c0,4.143,3.357,7.5,7.5,7.5s7.5-3.357,7.5-7.5V223.029h119.133V497
				h-51.724c2.085-5.56,3.164-11.477,3.164-17.549c0-27.609-22.462-50.071-50.071-50.071c-7.126,0-14.102,1.531-20.501,4.407
				v-19.446c0-4.143-3.357-7.5-7.5-7.5c-4.143,0-7.5,3.357-7.5,7.5v63.065c0,19.075,15.52,34.595,34.595,34.595h35.302
				c0.004,0,0.009,0.001,0.013,0.001c0.006,0,0.011-0.001,0.017-0.001h250.09c19.075,0,34.595-15.52,34.595-34.595V223.029h12.592
				c14.631,0,26.533-11.903,26.533-26.534v-45.841C472.43,136.023,460.528,124.121,445.897,124.121z M203.859,208.029H66.102
				c-6.359,0-11.533-5.174-11.533-11.534v-45.841c0-6.359,5.174-11.533,11.533-11.533h137.757V208.029z M144.532,497h-31.243
				c-10.805,0-19.595-8.79-19.595-19.595V451.01c5.949-4.294,13.114-6.63,20.501-6.63c19.338,0,35.071,15.732,35.071,35.071
				C149.266,485.687,147.626,491.68,144.532,497z M284.172,497h-56.346V223.029h56.346V497z M293.14,208.029h-74.281v-68.908h17.284
				c0.007,0,0.014,0.001,0.021,0.001c0.004,0,0.009-0.001,0.014-0.001h39.643c0.004,0,0.009,0.001,0.014,0.001
				c0.007,0,0.014-0.001,0.021-0.001h17.284V208.029z M364.042,90.583c-0.128-0.001-0.255-0.001-0.385-0.001
				c-14.771,0-44.849,4.684-72.427,20.754c10.435-18.378,28.473-35.915,41.352-43.855c3.525-2.174,4.621-6.794,2.447-10.32
				c-2.173-3.525-6.793-4.622-10.32-2.447c-27.862,17.177-48.891,47.679-54.927,69.408h-6.283v-18.563
				c0-49.935,40.625-90.559,90.558-90.559c30.085,0,54.561,24.476,54.561,54.561c0,30.085-24.476,54.561-54.561,54.561h-54.92
				c23.245-13.398,49.492-18.539,64.46-18.539c0.137,0,0.272,0.004,0.404,0.001c4.122,0,7.475-3.33,7.499-7.458
				C371.524,93.983,368.185,90.606,364.042,90.583z M299.172,391.099c6.266-5.165,14.059-7.984,22.257-7.984
				c19.338,0,35.071,15.732,35.071,35.071s-15.733,35.071-35.071,35.071c-8.198,0-15.991-2.819-22.257-7.984V391.099z
				 M418.305,316.537c-5.594,3.556-11.998,5.426-18.722,5.426c-19.338,0-35.071-15.732-35.071-35.071
				c0-19.339,15.733-35.071,35.071-35.071c6.724,0,13.128,1.871,18.722,5.427L418.305,316.537L418.305,316.537z M445.897,208.029
				h-39.928c-4.143,0-7.5,3.357-7.5,7.5s3.357,7.5,7.5,7.5h12.336v17.408c-5.884-2.381-12.197-3.617-18.722-3.617
				c-27.609,0-50.071,22.462-50.071,50.071s22.462,50.071,50.071,50.071c6.524,0,12.837-1.236,18.722-3.616v144.059
				c0,10.805-8.79,19.595-19.595,19.595h-99.538v-33.96c6.84,3.404,14.417,5.218,22.257,5.218c27.609,0,50.071-22.462,50.071-50.071
				s-22.462-50.071-50.071-50.071c-7.84,0-15.417,1.814-22.257,5.218V223.029h68.893c4.143,0,7.5-3.357,7.5-7.5s-3.357-7.5-7.5-7.5
				h-59.926v-68.908h137.757c6.359,0,11.533,5.174,11.533,11.533v45.841h0.001C457.43,202.855,452.256,208.029,445.897,208.029z"/>
		</g>
	</g>
</g>
<g>
</g>
<g>
</g>
<g>
</g>
<g>
</g>
<g>
</g>
<g>
</g>
<g>
</g>
<g>
</g>
<g>
</g>
<g>
</g>
<g>
</g>
<g>
</g>
<g>
</g>
<g>
</g>
<g>
</g>
</svg>
